<svg width="14" height="14" viewBox="0 0 14 14" fill="none" xmlns="http://www.w3.org/2000/svg">
<path d="M13 13.6677H1C0.726667 13.6677 0.5 13.4411 0.5 13.1677C0.5 12.8944 0.726667 12.6677 1 12.6677H13C13.2733 12.6677 13.5 12.8944 13.5 13.1677C13.5 13.4411 13.2733 13.6677 13 13.6677ZM11.68 1.32238C10.3867 0.0290501 9.12 -0.0042832 7.79333 1.32238L6.98667 2.12905C6.92 2.19572 6.89333 2.30238 6.92 2.39572C7.17497 3.27064 7.64646 4.06713 8.29086 4.71153C8.93525 5.35592 9.73175 5.82741 10.6067 6.08238C10.6539 6.09785 10.7045 6.09981 10.7528 6.08803C10.8011 6.07625 10.8452 6.0512 10.88 6.01572L11.68 5.20905C12.34 4.55572 12.66 3.92238 12.66 3.28238C12.6667 2.62238 12.3467 1.98238 11.68 1.32238V1.32238ZM9.40667 6.68772C9.21333 6.59438 9.02667 6.50105 8.84667 6.39438C8.70045 6.30728 8.55809 6.21386 8.42 6.11438C8.30667 6.04105 8.17333 5.93438 8.04667 5.82772C8.00587 5.79797 7.96793 5.7645 7.93333 5.72772C7.71333 5.54105 7.46667 5.30105 7.24667 5.03438C7.22667 5.02105 7.19333 4.97438 7.14667 4.91438C7.08 4.83438 6.96667 4.70105 6.86667 4.54772C6.77164 4.42233 6.68479 4.29095 6.60667 4.15438C6.5 3.97438 6.40667 3.79438 6.31333 3.60772C6.29946 3.57786 6.2859 3.54786 6.27267 3.51772C6.174 3.29572 5.884 3.23105 5.71267 3.40238L1.89333 7.22172C1.80667 7.30838 1.72667 7.47505 1.70667 7.58838L1.34667 10.1417C1.28 10.5951 1.40667 11.0217 1.68667 11.3084C1.92667 11.5417 2.26 11.6684 2.62 11.6684C2.7 11.6684 2.78 11.6617 2.86 11.6484L5.42 11.2884C5.54 11.2684 5.70667 11.1884 5.78667 11.1017L9.60133 7.28772C9.77467 7.11438 9.70867 6.81772 9.484 6.72105C9.4582 6.71 9.43242 6.69889 9.40667 6.68772V6.68772Z" fill="#6E6D7A"/>
</svg>
