<svg width="16" height="17" viewBox="0 0 16 17" fill="none" xmlns="http://www.w3.org/2000/svg">
<path d="M12.5542 3.55576C11.3351 4.25965 10.3388 3.68525 10.3345 2.27774C10.3309 1.46256 9.67095 0.801768 8.85577 0.805398L7.30549 0.811336C6.59059 0.801978 6.01243 1.38725 6.00307 2.10215L6.00287 2.2729C6.00721 3.68042 5.01031 4.25597 3.78681 3.55235L3.63882 3.46715C3.49271 3.38175 3.33106 3.32627 3.1633 3.30392C2.99554 3.28158 2.82501 3.29283 2.66164 3.33701C2.49826 3.38119 2.3453 3.45742 2.21167 3.56126C2.07803 3.66511 1.96638 3.79449 1.88321 3.94189L1.10292 5.28151C0.692194 5.98566 0.938386 6.8943 1.64253 7.30503C2.86215 8.00191 2.86149 9.15187 1.64231 9.85576C0.941797 10.2602 0.693078 11.1672 1.10141 11.8744L1.78586 13.0599C2.1903 13.7605 3.09728 14.0092 3.80454 13.6008C5.02371 12.8969 6.01993 13.4713 6.01753 14.8827C6.02116 15.6979 6.68108 16.3587 7.49626 16.3551L9.04654 16.3491C9.76145 16.3585 10.3396 15.7732 10.349 15.0583L10.3492 14.8876C10.3448 13.4801 11.3417 12.9045 12.5652 13.6081L12.7132 13.6933C13.337 14.0427 14.1329 13.8346 14.4823 13.2108L15.2626 11.8712C15.6733 11.1671 15.4271 10.2584 14.7269 9.85442C13.5034 9.15079 13.504 8.00084 14.7232 7.29695C15.4237 6.8925 15.6724 5.98552 15.2641 5.27827L14.5797 4.09277C14.3801 3.75532 14.0559 3.50987 13.6769 3.4094C13.298 3.30893 12.8947 3.3615 12.5542 3.55576ZM9.44327 10.7674C8.23757 11.4635 6.68638 11.0479 5.99027 9.84219C5.29415 8.63649 5.7098 7.08529 6.9155 6.38918C8.1212 5.69307 9.67239 6.10871 10.3685 7.31441C11.0646 8.52011 10.649 10.0713 9.44327 10.7674Z" fill="#6E6D7A"/>
</svg>
