<svg width="13" height="11" viewBox="0 0 13 11" fill="none" xmlns="http://www.w3.org/2000/svg">
<path d="M11.4249 3.42156L8.51168 0.505523C8.28308 0.276809 7.97308 0.148361 7.64987 0.148438C7.32666 0.148514 7.01671 0.277107 6.78822 0.50593C6.55973 0.734752 6.43141 1.04506 6.43148 1.36859C6.43156 1.69211 6.56003 2.00236 6.78863 2.23107L8.77002 4.2144H1.62677C1.30359 4.2144 0.993639 4.34291 0.765114 4.57166C0.536588 4.80041 0.408203 5.11066 0.408203 5.43416C0.408203 5.75766 0.536588 6.06791 0.765114 6.29666C0.993639 6.52541 1.30359 6.65392 1.62677 6.65392H8.77002L6.78863 8.63724C6.56003 8.86596 6.43156 9.1762 6.43148 9.49973C6.43141 9.82326 6.55973 10.1336 6.78822 10.3624C7.01671 10.5912 7.32666 10.7198 7.64987 10.7199C7.97308 10.72 8.28308 10.5915 8.51168 10.3628L11.4249 7.44676C11.9572 6.91248 12.2561 6.18871 12.2561 5.43416C12.2561 4.6796 11.9572 3.95584 11.4249 3.42156Z" fill="#192228"/>
</svg>
